<?xml version="1.0" encoding="UTF-8"?>
<svg xmlns="http://www.w3.org/2000/svg" id="Layer_1" data-name="Layer 1" viewBox="0 0 24 24">
  <path d="m3.307,11.412c5.009,2.212,9.836-2.176,8.452-7.136-.546-1.959-2.077-3.489-4.036-4.035C2.764-1.143-1.624,3.684.588,8.692c.532,1.205,1.514,2.187,2.719,2.719Zm1.693-9.412h2v3.586l2.207,2.207-1.414,1.414-2.793-2.793V2Zm19,8.5c0-3.033-2.468-5.5-5.5-5.5h-1.5v-.5h0c0-1.93-1.57-3.5-3.5-3.5h-1.26c.715.891,1.238,1.939,1.52,3.083.141.088.241.238.241.417,0,0,0,0,0,0v12.499H3v-3h0v-.587C1.838,12.942.815,12.205,0,11.279v2.721s0,0,0,0v5.999h3.058c-.034.162-.058.328-.058.5,0,1.381,1.119,2.5,2.5,2.5s2.5-1.119,2.5-2.5c0-.172-.024-.338-.058-.5h8.115c-.034.162-.058.328-.058.5,0,1.381,1.119,2.5,2.5,2.5s2.5-1.119,2.5-2.5c0-.172-.024-.338-.058-.5h3.058v-9.5Zm-5.5-2.5c1.379,0,2.5,1.122,2.5,2.5v2.5h-4v-5h1.5Z"/>
</svg>
