<svg width="23" height="23" viewBox="0 0 23 23" fill="none" xmlns="http://www.w3.org/2000/svg">
<path fill-rule="evenodd" clip-rule="evenodd" d="M11.1743 22.0866C17.2492 22.0384 22.1348 17.0746 22.0866 10.9996C22.0384 4.92468 17.0746 0.0390479 10.9997 0.0872617C4.92471 0.135476 0.039085 5.09927 0.0872988 11.1742C0.135513 17.2492 5.09931 22.1348 11.1743 22.0866ZM13.3917 8.74566C11.0882 6.47843 11.0056 0.820758 11.0056 0.820758C11.0056 0.820758 11.0129 6.47903 8.74566 8.78253C6.47843 11.086 0.820757 11.1686 0.820757 11.1686C0.820757 11.1686 6.47902 11.1613 8.78253 13.4285C11.086 15.6958 11.1686 21.3534 11.1686 21.3534C11.1686 21.3534 11.1613 15.6952 13.4285 13.3917C15.6958 11.0882 21.3534 11.0056 21.3534 11.0056C21.3534 11.0056 15.6952 11.0129 13.3917 8.74566Z" fill="#D9D9D9"/>
</svg>
