<svg width="30" height="30" viewBox="0 0 30 30" fill="none" xmlns="http://www.w3.org/2000/svg">
<rect width="30" height="30" fill="white"/>
<path fill-rule="evenodd" clip-rule="evenodd" d="M13.1166 3.06281C13.0726 3.11343 13.0365 7.24744 13.0365 12.2495C13.0365 20.4185 13.0177 21.3522 12.8517 21.4254C12.7501 21.4702 12.0669 21.5069 11.3335 21.5069H10V24.109C10 26.2281 10.0316 26.7412 10.1707 26.874C10.2963 26.9936 10.9538 27.0228 12.6525 26.9837C14.722 26.9362 15.0222 26.8999 15.5261 26.6367C16.3666 26.1976 17.3984 25.0002 17.7268 24.0827L18 23.3197V13.1814V3.04307L15.5984 3.00681C14.2775 2.98694 13.1608 3.01205 13.1166 3.06281Z" fill="#002F97"/>
</svg>
