<svg width="21" height="21" viewBox="0 0 21 21" fill="none" xmlns="http://www.w3.org/2000/svg">
<path d="M7.00085 10.5C7.00085 8.56708 8.56743 6.99972 10.5004 6.99972C12.4334 6.99972 14.0008 8.56708 14.0008 10.5C14.0008 12.4329 12.4334 14.0003 10.5004 14.0003C8.56743 14.0003 7.00085 12.4329 7.00085 10.5ZM5.10857 10.5C5.10857 13.4778 7.52248 15.8916 10.5004 15.8916C13.4784 15.8916 15.8923 13.4778 15.8923 10.5C15.8923 7.52217 13.4784 5.10836 10.5004 5.10836C7.52248 5.10836 5.10857 7.52217 5.10857 10.5ZM14.8456 4.89463C14.8456 5.5901 15.4097 6.15497 16.106 6.15497C16.8015 6.15497 17.3664 5.5901 17.3664 4.89463C17.3664 4.19915 16.8024 3.63514 16.106 3.63514C15.4097 3.63514 14.8456 4.19915 14.8456 4.89463ZM6.25785 19.0467C5.2341 19.0001 4.67769 18.8296 4.30789 18.6854C3.81764 18.4946 3.46819 18.2673 3.10009 17.9C2.73282 17.5328 2.50466 17.1834 2.31467 16.6931C2.17048 16.3233 2 15.767 1.95335 14.7433C1.90246 13.6364 1.89228 13.304 1.89228 10.5C1.89228 7.69604 1.90331 7.36442 1.95335 6.25674C2 5.23304 2.17133 4.6775 2.31467 4.30687C2.50551 3.81664 2.73282 3.46721 3.10009 3.09911C3.46735 2.73187 3.81679 2.50372 4.30789 2.31373C4.67769 2.16955 5.2341 1.99907 6.25785 1.95242C7.36472 1.90153 7.6972 1.89136 10.5004 1.89136C13.3045 1.89136 13.6361 1.90238 14.7439 1.95242C15.7676 1.99907 16.3232 2.1704 16.6938 2.31373C17.1841 2.50372 17.5335 2.73187 17.9016 3.09911C18.2689 3.46636 18.4962 3.81664 18.687 4.30687C18.8312 4.67666 19.0017 5.23304 19.0483 6.25674C19.0992 7.36442 19.1094 7.69604 19.1094 10.5C19.1094 13.3031 19.0992 13.6356 19.0483 14.7433C19.0017 15.767 18.8304 16.3233 18.687 16.6931C18.4962 17.1834 18.2689 17.5328 17.9016 17.9C17.5344 18.2673 17.1841 18.4946 16.6938 18.6854C16.324 18.8296 15.7676 19.0001 14.7439 19.0467C13.637 19.0976 13.3045 19.1078 10.5004 19.1078C7.6972 19.1078 7.36472 19.0976 6.25785 19.0467ZM6.17133 0.0636107C5.05344 0.114499 4.29008 0.291761 3.62256 0.551292C2.93215 0.819305 2.3469 1.17892 1.76251 1.76244C1.17897 2.34596 0.819338 2.93118 0.551315 3.62242C0.291773 4.2899 0.114504 5.05323 0.0636132 6.17108C0.0118745 7.29063 0 7.64855 0 10.5C0 13.3515 0.0118745 13.7094 0.0636132 14.8289C0.114504 15.9468 0.291773 16.7101 0.551315 17.3776C0.819338 18.068 1.17812 18.654 1.76251 19.2376C2.34606 19.8211 2.9313 20.1798 3.62256 20.4487C4.29092 20.7082 5.05344 20.8855 6.17133 20.9364C7.29177 20.9873 7.64886 21 10.5004 21C13.3528 21 13.7099 20.9881 14.8295 20.9364C15.9474 20.8855 16.7108 20.7082 17.3783 20.4487C18.0687 20.1798 18.6539 19.8211 19.2383 19.2376C19.8219 18.654 20.1807 18.068 20.4495 17.3776C20.7091 16.7101 20.8872 15.9468 20.9372 14.8289C20.9881 13.7085 21 13.3515 21 10.5C21 7.64855 20.9881 7.29063 20.9372 6.17108C20.8863 5.05323 20.7091 4.2899 20.4495 3.62242C20.1807 2.93203 19.8219 2.34681 19.2383 1.76244C18.6548 1.17892 18.0687 0.819305 17.3791 0.551292C16.7108 0.291761 15.9474 0.113651 14.8304 0.0636107C13.7108 0.0127221 13.3528 0 10.5013 0C7.64886 0 7.29177 0.011874 6.17133 0.0636107Z" fill="#D9D9D9"/>
</svg>
