<svg width="32" height="36" viewBox="0 0 32 36" fill="none" xmlns="http://www.w3.org/2000/svg">
<path fill-rule="evenodd" clip-rule="evenodd" d="M4.00005 13.1793C4 13.2841 4 13.391 4 13.5V22.5C4 25.3284 4 26.7426 4.87868 27.6213C5.75736 28.5 7.17157 28.5 10 28.5H22C24.8284 28.5 26.2426 28.5 27.1213 27.6213C28 26.7426 28 25.3284 28 22.5V13.5C28 13.391 28 13.2841 28 13.1793L17.06 20.0167C16.4115 20.4221 15.5885 20.4221 14.94 20.0167L4.00005 13.1793ZM4.03832 11.0006C4.20708 11.0069 4.37652 11.0561 4.53 11.152L16 18.3208L27.47 11.152C27.6235 11.0561 27.7929 11.0069 27.9617 11.0006C27.8911 9.74233 27.6907 8.94807 27.1213 8.37868C26.2426 7.5 24.8284 7.5 22 7.5H10C7.17157 7.5 5.75736 7.5 4.87868 8.37868C4.30929 8.94807 4.10887 9.74233 4.03832 11.0006Z" fill="#D9D9D9"/>
</svg>
