<?xml version="1.0" encoding="UTF-8"?>
<svg xmlns="http://www.w3.org/2000/svg" id="Layer_1" data-name="Layer 1" viewBox="0 0 24 24">
  <path d="m1,2.5C1,1.119,2.119,0,3.5,0s2.5,1.119,2.5,2.5-1.119,2.5-2.5,2.5S1,3.881,1,2.5Zm-1,15.617v5.883h3v-3.972l-2.377-1.46c-.22-.135-.426-.288-.623-.451Zm23.819,1.498l-.678-2.922-7.793,1.807-2.936-12.664-2.923.678.808,3.486h-1.966l-1.471-2.354c-.644-1.031-1.753-1.646-2.968-1.646h-1.392c-1.378,0-2.5,1.121-2.5,2.5v5.661c0,1.05.534,2.005,1.431,2.557l3.456,2.121v5.161h3v-6.839l-2.886-1.772v-5.059l1.669,2.67h4.324l1.446,6.236c-.85.399-1.439,1.262-1.439,2.264,0,1.381,1.119,2.5,2.5,2.5s2.5-1.119,2.5-2.5c0-.024-.001-.048-.002-.072l7.821-1.813Zm-7.432-4.908c.189.808,1,1.309,1.807,1.117l2.736-.65c.804-.191,1.302-.997,1.114-1.802l-.659-2.811c-.189-.808-1-1.309-1.807-1.117l-2.736.65c-.804.191-1.302.997-1.114,1.802l.659,2.811Z"/>
</svg>
