<svg width="30" height="21" viewBox="0 0 30 21" fill="none" xmlns="http://www.w3.org/2000/svg">
<path fill-rule="evenodd" clip-rule="evenodd" d="M0 7.63119C0 4.96002 0 3.62444 0.468113 2.60419C0.879878 1.70675 1.53691 0.977112 2.34504 0.519843C3.26376 0 4.46644 0 6.87179 0H23.1282C25.5336 0 26.7362 0 27.6549 0.519843C28.4631 0.977112 29.1201 1.70675 29.5319 2.60419C30 3.62444 30 4.96002 30 7.63119V13.3688C30 16.04 30 17.3755 29.5319 18.3958C29.1201 19.2932 28.4631 20.0229 27.6549 20.4801C26.7362 21 25.5336 21 23.1282 21H6.87179C4.46644 21 3.26376 21 2.34504 20.4801C1.53691 20.0229 0.879878 19.2932 0.468113 18.3958C0 17.3755 0 16.04 0 13.3688V7.63119ZM24.657 9.00971C26.0129 9.00971 27.1122 7.77634 27.1122 6.25485C27.1122 4.73339 26.0129 3.5 24.657 3.5C23.301 3.5 22.2019 4.73339 22.2019 6.25485C22.2019 7.77634 23.301 9.00971 24.657 9.00971ZM4.0367 2.93382H16.6431C17.4205 2.93382 18.051 3.0281 18.5553 3.19308C19.0595 3.38163 19.4796 3.66461 19.8578 4.06544C20.2151 4.48969 20.4671 4.96122 20.6143 5.50346C20.7613 6.0457 20.8453 6.75292 20.8453 7.64884V8.82762C20.8453 10.3365 20.6143 11.4681 20.1521 12.1753C19.6898 12.8825 18.9333 13.3305 17.8828 13.5192L21.2656 18.6587H17.3365L14.2691 13.5428H7.54551V18.6587H4.0367V2.93382ZM7.54538 10.0771H16.0761C16.5592 10.0771 16.8954 10.0064 17.0635 9.84138C17.2315 9.67637 17.3365 9.36984 17.3365 8.8983V7.57815C17.3365 7.13018 17.2315 6.82363 17.0637 6.65865C16.8955 6.49366 16.5595 6.39939 16.0762 6.39939H7.54538V10.0771Z" fill="#D9D9D9"/>
</svg>
