<svg width="22" height="22" viewBox="0 0 22 22" fill="none" xmlns="http://www.w3.org/2000/svg">
<path fill-rule="evenodd" clip-rule="evenodd" d="M14.3802 0H7.63125C1.46667 0 0 1.46667 0 7.61979V14.3687C0 20.5333 1.45521 22 7.61979 22H14.3687C20.5333 22 22 20.5448 22 14.3802V7.63125C22 1.46667 20.5448 0 14.3802 0ZM17.5311 6.98966C18.0124 6.98966 18.1155 7.23029 18.0124 7.57404C17.8403 8.40405 16.2912 10.6469 15.9322 11.1666C15.8848 11.2352 15.8582 11.2737 15.8582 11.2751C15.6863 11.5386 15.6176 11.6761 15.8582 11.9855C15.9401 12.1084 16.1267 12.2911 16.3401 12.5C16.5444 12.7001 16.7732 12.9242 16.9582 13.1428C17.6457 13.922 18.1613 14.5751 18.3103 15.022C18.4478 15.4688 18.2186 15.698 17.7603 15.698H16.1561C15.7305 15.698 15.5132 15.456 15.0465 14.9366C14.8473 14.7148 14.6026 14.4424 14.277 14.1167C13.3259 13.2001 12.9249 13.0855 12.6842 13.0855C12.352 13.0855 12.2603 13.1772 12.2603 13.6355V15.0792C12.2603 15.4688 12.1342 15.698 11.1145 15.698C9.41862 15.698 7.55091 14.6667 6.22174 12.7647C4.22799 9.98029 3.68945 7.87195 3.68945 7.44799C3.68945 7.20737 3.78112 6.98966 4.23945 6.98966H5.84362C6.25612 6.98966 6.40508 7.173 6.56549 7.59695C7.34466 9.88862 8.67383 11.8824 9.21237 11.8824C9.41862 11.8824 9.51029 11.7907 9.51029 11.2751V8.91466C9.46803 8.25259 9.23527 7.96285 9.06218 7.74738C8.95368 7.61232 8.86862 7.50644 8.86862 7.35633C8.86862 7.18445 9.02904 6.98966 9.28112 6.98966H11.802C12.1457 6.98966 12.2603 7.16154 12.2603 7.57404V10.7595C12.2603 11.1032 12.4092 11.2178 12.5124 11.2178C12.7186 11.2178 12.879 11.1032 13.2572 10.7251C14.4145 9.44174 15.228 7.44799 15.228 7.44799C15.3311 7.20737 15.5145 6.98966 15.927 6.98966H17.5311Z" fill="#D9D9D9"/>
</svg>
