<svg width="27" height="32" viewBox="0 0 27 32" fill="none" xmlns="http://www.w3.org/2000/svg">
<path fill-rule="evenodd" clip-rule="evenodd" d="M23.5266 5.8416C24.6586 6.22494 25.4672 7.18327 25.7906 8.52494C26.4375 11.0166 26.4375 15.9999 26.4375 15.9999C26.4375 15.9999 26.4375 20.9833 25.9524 23.4749C25.6289 24.8166 24.8203 25.7749 23.6883 26.1583C21.5859 26.7333 13.5 26.7333 13.5 26.7333C13.5 26.7333 5.25234 26.7333 3.31171 26.1583C2.17968 25.7749 1.3711 24.8166 1.04766 23.4749C0.562505 20.9833 0.5625 15.9999 0.5625 15.9999C0.5625 15.9999 0.562495 11.0166 0.885933 8.52494C1.20937 7.18327 2.01798 6.22494 3.15001 5.8416C5.25235 5.2666 13.3383 5.2666 13.3383 5.2666C13.3383 5.2666 21.586 5.2666 23.5266 5.8416ZM17.7045 16L10.9123 20.6V11.4L17.7045 16Z" fill="#D9D9D9"/>
</svg>
