<svg width="27" height="22" viewBox="0 0 27 22" fill="none" xmlns="http://www.w3.org/2000/svg">
<path fill-rule="evenodd" clip-rule="evenodd" d="M23.5266 0.841724C24.6586 1.22506 25.4672 2.18339 25.7906 3.52506C26.4375 6.01672 26.4375 11.0001 26.4375 11.0001C26.4375 11.0001 26.4375 15.9834 25.9524 18.4751C25.6289 19.8167 24.8203 20.7751 23.6883 21.1584C21.5859 21.7334 13.5 21.7334 13.5 21.7334C13.5 21.7334 5.25234 21.7334 3.31171 21.1584C2.17968 20.7751 1.3711 19.8167 1.04766 18.4751C0.562505 15.9834 0.5625 11.0001 0.5625 11.0001C0.5625 11.0001 0.562495 6.01672 0.885933 3.52506C1.20937 2.18339 2.01798 1.22506 3.15001 0.841724C5.25235 0.266724 13.3383 0.266724 13.3383 0.266724C13.3383 0.266724 21.586 0.266724 23.5266 0.841724ZM17.7045 11.0001L10.9123 15.6001V6.40009L17.7045 11.0001Z" fill="#1E1E1E"/>
</svg>
