<svg width="101" height="19" viewBox="0 0 101 19" fill="none" xmlns="http://www.w3.org/2000/svg">
<path fill-rule="evenodd" clip-rule="evenodd" d="M2.55963 0.068661C2.52346 0.108669 2.49383 3.37573 2.49383 7.32875C2.49383 13.7847 2.47838 14.5225 2.34209 14.5804C2.25864 14.6158 1.69753 14.6448 1.09517 14.6448H0V16.7012C0 18.3759 0.0259935 18.7814 0.14023 18.8863C0.24334 18.9809 0.783349 19.0039 2.17845 18.973C3.87809 18.9355 4.12469 18.9068 4.53848 18.6988C5.22879 18.3518 6.07621 17.4055 6.34593 16.6804L6.57028 16.0774V8.06524V0.0530608L4.59785 0.0244075C3.51303 0.00870151 2.59588 0.028547 2.55963 0.068661ZM8.46414 9.47135L8.4886 18.9427H16.9772H25.4658L25.4922 9.71012C25.5067 4.6322 25.4951 0.370152 25.4664 0.238773L25.4142 0H16.9269H8.43959L8.46414 9.47135ZM27.2638 9.47135L27.2882 18.9427H29.3025H31.3167L31.3415 13.0795C31.3552 9.85476 31.3997 7.21626 31.4405 7.21626C31.4814 7.21626 31.9235 7.77128 32.4229 8.4495C37.3313 15.1158 40.0359 18.7529 40.1681 18.8652C40.2871 18.9663 40.8184 18.9928 42.2961 18.9713L44.2654 18.9427L44.2899 9.52653L44.3144 0.110473L44.0981 0.0515743C43.9791 0.0193133 43.0617 0.00636766 42.0594 0.0229226L40.2369 0.0530608L40.189 5.97093L40.141 11.8887L36.0166 6.29799C33.7482 3.22312 31.7576 0.548117 31.5931 0.353702L31.2941 0H29.2667H27.2392L27.2638 9.47135ZM46.2003 0.0701459C46.1648 0.109411 46.1358 2.73613 46.1358 5.90747V11.6734H52.6102H59.0845V13.0947C59.0845 14.2928 59.0607 14.526 58.9328 14.5804C58.8493 14.6158 55.935 14.6448 52.4565 14.6448H46.1319L46.1578 16.7937L46.1838 18.9427L54.6963 18.9698L63.2089 18.9969V13.1596V7.32239H56.7346H50.2602V5.90152V4.48077L50.5999 4.4102C50.7868 4.37146 53.6463 4.34493 56.9544 4.3513C60.2625 4.35767 63.024 4.36022 63.091 4.35693C63.1863 4.35226 63.2072 3.88171 63.187 2.20202L63.161 0.0530608L54.7128 0.0259993C50.0664 0.0110361 46.2358 0.030987 46.2003 0.0701459ZM64.9936 0.167884C64.9616 0.26021 64.9354 4.4535 64.9354 9.48631C64.9354 16.6397 64.9616 18.6762 65.0553 18.8173C65.1669 18.985 65.7657 18.9958 73.6159 18.9702L82.0565 18.9427L82.0826 16.881C82.097 15.7471 82.0715 14.7781 82.0259 14.7277C81.9803 14.6771 79.1037 14.6388 75.6335 14.6424C71.0353 14.6473 69.2881 14.6161 69.1919 14.5278C69.0934 14.4374 69.0602 14.0924 69.0613 13.1727C69.0621 12.4939 69.0969 11.8794 69.1385 11.8068C69.1973 11.7042 70.6446 11.6688 75.6354 11.6476L82.0565 11.6203V9.49788V7.37545L75.6354 7.34817C70.6446 7.32695 69.1973 7.2915 69.1385 7.18899C69.0969 7.1164 69.0621 6.49761 69.0613 5.81387C69.0599 4.66213 69.0745 4.56195 69.2595 4.45243C69.4017 4.36828 71.2459 4.34196 75.6683 4.36096C79.0832 4.3756 81.9285 4.35268 81.9909 4.31002C82.1524 4.19955 82.151 0.30616 81.9894 0.127346C81.9016 0.0302443 79.8772 0 73.4631 0C65.8816 0 65.0461 0.016555 64.9936 0.167884ZM83.9465 0.126816C83.7642 0.328553 83.7804 18.7111 83.9631 18.8789C84.0551 18.9634 84.6889 18.9915 86.0493 18.9715L88.0033 18.9427L88.0285 15.308L88.0538 11.6734H91.5871C93.9736 11.6734 95.2263 11.7125 95.4465 11.7941C95.9082 11.9651 96.3411 12.3462 96.6027 12.8119C96.8205 13.1995 96.8292 13.3024 96.8756 16.0774L96.9235 18.9427L98.9618 18.9713L101 19V16.0334C101 13.7901 100.965 12.8804 100.855 12.3022C100.705 11.5149 100.253 10.4426 99.9366 10.1262C99.7635 9.95293 99.7732 9.92767 100.223 9.38369C100.978 8.46935 101.014 8.1999 100.98 3.76731L100.952 0.0530608L92.5071 0.0259993C86.0183 0.00509332 84.0355 0.0284413 83.9465 0.126816ZM12.637 4.46559C12.4809 4.5662 12.4691 4.91948 12.4691 9.48196C12.4691 13.1579 12.498 14.422 12.5842 14.5174C12.6703 14.6126 13.759 14.6448 16.8926 14.6448C19.1989 14.6448 21.1542 14.6158 21.2376 14.5804C21.3731 14.5228 21.3894 13.9759 21.3894 9.49894V4.48183L21.1735 4.41784C20.79 4.30418 12.8184 4.34875 12.637 4.46559ZM88.2191 4.4241C88.0698 4.46729 88.0513 4.62976 88.0513 5.89749V7.32239H92.2107C97.3051 7.32239 96.8756 7.47329 96.8756 5.68302V4.48363L96.5759 4.41731C96.2379 4.34249 88.4794 4.34886 88.2191 4.4241Z" fill="#D9D9D9"/>
</svg>
